<svg height="512" viewBox="0 0 58 55" width="512" xmlns="http://www.w3.org/2000/svg"><g id="011---Wasp" fill="none" transform="translate(-1 -1)"><path id="Shape" d="m50 31c-1.3518869 1.8751546-3.5920977 2.8988476-5.8946373 2.6936302s-4.326402-1.6089527-5.3253627-3.6936302c-1.0540174-2.4919702-1.728188-5.1279773-2-7.82l.62-3.18c.8035623.1000841 1.6164377.1000841 2.42 0l3.39 2.72c3.25 1.99 9.07 6.28 6.79 9.28z" fill="#90bae1"/><path id="Shape" d="m50 27.78c-.4020338-.7296214-.8997729-1.4022417-1.48-2l-6.21-.67-3.76-4.77c-.22865-.2768808-.5876454-.410746-.9417563-.3511697-.3541108.0595763-.6495391.3035429-.775.64-.1254608.3364571-.0618937.7142889.1667563.9911697l3.85 4.76c0 .35 0 1.23.08 6.14.5869204.4240373 1.2434775.7421629 1.94.94.1-.22.07 0 0-4.5.6.75 1.58 2 3.57 4.48.6564591-.1918602 1.2801642-.4817988 1.85-.86 0-.08-.12-.06-4.24-5.24 5.95.66 5.58.66 5.95.44z" fill="#4482c3"/><path id="Shape" d="m54.63 20.21c-4.51 3.62-11 2.23-16.13-.36 0-2 0-1.27 0-3.29 4.07-3.56 10.55-6.56 18.05-7.44.9044428-.08165671 1.7503767.45629155 2.06 1.31 1.32 3.66-.99 7.38-3.98 9.78z" fill="#b0d3f0"/><path id="Shape" d="m59 12.14c-.82 0-2.33 1.53-11.16 3.83.9794431-1.5728537 1.803334-3.2373814 2.46-4.97.0770425-.2166891.0770425-.4533109 0-.67-.69.19-1.53.47-2.23.73-.8276662 2.020474-1.9388185 3.9128001-3.3 5.62-3.65.84-6.32 1.3-6.32 1.44-.400508.2552464-.5662374.7569852-.3965604 1.2005695.1696771.4435844.6279487.7066343 1.0965604.6294305.35 0 5.59-1.17 8.67-2 2.0343026.784423 4.0008867 1.7342697 5.88 2.84.5914623-.3785519 1.1471048-.8103463 1.66-1.29-1.3933549-.8898453-2.8506703-1.675325-4.36-2.35 2.6765477-.7499255 5.2964689-1.6889534 7.84-2.81.1692667-.7202689.2232704-1.4628193.16-2.2z" fill="#4482c3"/><path id="Shape" d="m27.93 7.36c-.4858642.00883638-.9077509-.33289179-1-.81-.42-2.26-4.63-3.36-6.07-3.55-.2663722-.03463388-.507611-.17497533-.6693808-.38941447-.1617699-.21443913-.2304673-.48494336-.1906192-.75058553.0346339-.26637216.1749753-.50761095.3894145-.66938083.2144391-.16176987.4849433-.23046729.7505855-.19061917.28 0 7 1 7.77 5.16.0600645.29425495-.0152993.59992501-.2052638.83253459-.1899645.23260959-.4744135.36752671-.7747362.36746541z" fill="#3f5c6c"/><path id="Shape" d="m32.07 7.36c-.3016771.00550596-.5897121-.12549472-.7838263-.35649054-.1941141-.23099582-.2735521-.53728812-.2161737-.83350946.83-4.12 7.51-5.12 7.79-5.17.3572656-.05001718.7140765.09436396.9360254.37875644.2219489.28439249.2753166.66559034.14 1-.1353166.33440967-.4387598.57122638-.7960254.62124356-1.54.22-5.64 1.3-6.09 3.56-.0950537.46566625-.5047314.800097-.98.8z" fill="#3f5c6c"/><path id="Shape" d="m36.77 36.46c.067441-.2163386.1208849-.4367945.16-.66.1149906-1.7447741.1149906-3.4952259 0-5.24.6006248-.3004046 1.134579-.7187255 1.57-1.23-.4198752-1.0171088-.7543633-2.0674012-1-3.14-.5498182-1.0772681-1.2727656-2.0569632-2.14-2.9.9361836-.6208663 1.7610635-1.3950363 2.44-2.29 1-1.32 1.75-3.22.67-4.44-.4308328-.4418678-.9680246-.7655603-1.56-.94.49-1.63-.95-3-2.51-3.73 1.77-2.54-.51-5.89-4.4-5.89s-6.16 3.36-4.4 5.89c-1.56.72-3 2.1-2.51 3.73-.5919754.1744397-1.1291672.4981322-1.56.94-1.08 1.22-.3 3.12.67 4.44.672935.8932884 1.4909527 1.667363 2.42 2.29-.7183335.6813604-1.3346744 1.4627324-1.83 2.32 0 0-.31.55-.31.58-.2438592 1.0730837-.5783942 2.1235235-1 3.14.435421.5112745.9693752.9295954 1.57 1.23-.1499159 1.7360803-.1699717 3.4809325-.06 5.22.0391151.2232055.092559.4436614.16.66-.9884688-.4648277-1.756341-1.2972874-2.14-2.32.42 3.81 2.32 8 4.93 10.2v.66c0 3.87 1.79 7 4 7s4-3.13 4-7c0-.22 0-.44 0-.66 2.61-2.23 4.51-6.39 4.93-10.2-.3697142 1.0230225-1.1227909 1.8621652-2.1 2.34zm-.2.11c.0573225-.0222797.1111929-.0525818.16-.09-.0504611.0348422-.10402.0649692-.16.09z" fill="#35495e"/><path id="Shape" d="m23.09 30.56c-.07.78-.11 1.57-.12 2.38-.0102637-.7950707.0298165-1.5899938.12-2.38z" fill="#35495e"/><path id="Shape" d="m23.19 22.13c-.2743293 2.6915757-.9484054 5.3272134-2 7.82-.9975179 2.0729015-3.0079561 3.4718291-5.2983217 3.6867428s-4.5259519-.7855935-5.8916783-2.6367428c-2.28-3.05 3.53-7.29 6.79-9.28.19-.19-.79.88 3.39-3.72l2.42.16z" fill="#90bae1"/><path id="Shape" d="m22.82 20.22c-.4313699-.3403569-1.0565461-.2689082-1.4.16l-3.76 4.77-6.2.68c-.3643694.3408138-.6989219.7121671-1 1.11-.1943776.2684257-.3714049.5489973-.53.84.41.26.19.21 5.95-.44-4.2 5.28-4.2 5.16-4.24 5.24.5708628.3763642 1.1942833.6661705 1.85.86l3.61-4.44c-.06 4.38-.09 4.22 0 4.47.703906-.1863594 1.3657562-.5054051 1.95-.94.06-4.63.08-5.73.08-6.07l3.87-4.84c.3358001-.436601.2553218-1.0625433-.18-1.4z" fill="#4482c3"/><path id="Shape" d="m38.91 34.14c-.56 5.03-4.11 11.86-8.91 11.86s-8.35-6.8-8.91-11.86c.63 2.19 4.38 3.86 8.91 3.86s8.28-1.67 8.91-3.86z" fill="#f0c419"/><path id="Shape" d="m30 56c-.5522847 0-1-.4477153-1-1v-3c0-.5522847.4477153-1 1-1s1 .4477153 1 1v3c0 .5522847-.4477153 1-1 1z" fill="#f29c1f"/><path id="Shape" d="m38.48 29.33c-2.8 3.55-14.16 3.55-17 0 .3997407-1.0345593.7337389-2.0933336 1-3.17.5478739-1.0669595 1.2674746-2.0365624 2.13-2.87 3.2206492 2.2915346 7.5393508 2.2915346 10.76 0 .8603666.8353306 1.579689 1.8045584 2.13 2.87.2619964 1.0755854.5892692 2.1342126.98 3.17z" fill="#f0c419"/><path id="Shape" d="m34 45c0 3.87-1.79 7-4 7s-4-3.13-4-7c0-.22 0-.44 0-.66 1.054655 1.0724962 2.4958241 1.676541 4 1.676541s2.945345-.6040448 4-1.676541z" fill="#35495e"/><path id="Shape" d="m33.1 44.34c-5.51 6.13-11.1-6.06-9.93-14.34.4359565-1.237414.7703956-2.5082828 1-3.8.4030357-1.0360592.9629041-2.0040244 1.66-2.87 2.3281082 2.2608402 6.0318918 2.2608402 8.36 0 .6970959.8659756 1.2569643 1.8339408 1.66 2.87.2288679 1.2886117.5633286 2.5562177 1 3.79.65 6.37-1.51 11.88-3.75 14.35z" fill="#f3d55b"/><path id="Shape" d="m21.53 16.56v3.29c-5.19 2.6-11.64 4-16.13.36-3-2.41-5.3-6.13-4-9.78.30962326-.85370845 1.15555715-1.39165671 2.06-1.31 7.46.88 14 3.88 18.07 7.44z" fill="#b0d3f0"/><path id="Shape" d="m21.52 18.15c0-.14-1.67-.31-6.31-1.43-1.37377-1.703974-2.489072-3.6009981-3.31-5.63-.7-.25-1.54-.54-2.23-.73-.0770425.2166891-.0770425.4533109 0 .67.6826183 1.7019647 1.5054479 3.3442791 2.46 4.91-9-2.4-10.39-3.8-11.14-3.8-.05212042.7387571.01199252 1.4811175.19 2.2 2.54703953 1.1122316 5.16634222 2.0510378 7.84 2.81-1.53730895.6929386-3.02134488 1.4984626-4.44 2.41.51087952.4820113 1.06675087.9139837 1.66 1.29 1.88687102-1.1135311 3.8637978-2.0668714 5.91-2.85 4.6 1.22 8.52 2 8.85 2 .4455595-.0030058.8353785-.3004355.9559473-.7293824.1205689-.4289469-.057203-.8859156-.4359473-1.1206176z" fill="#4482c3"/><path id="Shape" d="m36.91 15.62c-2.2636923-.5245115-4.5890927-.7331581-6.91-.62-2.3207825-.1072249-4.6453742.1013491-6.91.62-.49-1.63.95-3 2.51-3.73 5-2.29 12.4.17 11.31 3.73z" fill="#f3d55b"/><path id="Shape" d="m38.47 16.56c-1.47-1.64-6.07-1.56-8.47-1.56-4.17 0-10-.07-8.86 4 1 3.15 4.86 6 8.86 6 6 0 10.55-6.09 8.47-8.44z" fill="#2c3e50"/><path id="Shape" d="m30 15c-3.05 0-7 0-7 3s3.33 7 7 7 7-4 7-7-4-3-7-3z" fill="#35495e"/><path id="Shape" d="m38.78 30c0-.05-.11-.18-.3-.65-.4451443.5227949-.9931969.9483016-1.61 1.25.2078354 1.9566884.17425 3.9315103-.1 5.88.9884688-.4648277 1.756341-1.2972874 2.14-2.32.1556901-1.3857539.1119114-2.7866712-.13-4.16z" fill="#3f5c6c"/><path id="Shape" d="m36.87 30.58c-4.53 2.42-13.1 1.62-15.35-1.25-.19.47-.3.6-.3.65-.2417741 1.373343-.2855522 2.7742406-.13 4.16 1.06 3.78 10.63 5.23 15.68 2.32.27425-1.9484897.3078354-3.9233116.1-5.88z" fill="#3f5c6c"/><path id="Shape" d="m23.23 36.46c-.9884688-.4648277-1.756341-1.2972874-2.14-2.32-.1536356-1.3791654-.1098619-2.7731908.13-4.14 0-.05.11-.18.3-.65.4451443.5227949.9931969.9483016 1.61 1.25-.2061916 1.9500835-.172608 3.9180872.1 5.86z" fill="#35495e"/><path id="Shape" d="m38.91 34.14c-.383659 1.0227126-1.1515312 1.8551723-2.14 2.32.27425-1.9484897.3078354-3.9233116.1-5.88.6168031-.3016984 1.1648557-.7272051 1.61-1.25.19.47.3.6.3.65.2419114 1.3733288.2856901 2.7742461.13 4.16z" fill="#35495e"/><path id="Shape" d="m36.77 36.46c-3.57 2.06-10 2-13.54 0-.27425-1.9484897-.3078354-3.9233116-.1-5.88 3.64 1.92 10.2 1.87 13.74 0 .2078354 1.9566884.17425 3.9315103-.1 5.88z" fill="#3f5c6c"/></g></svg>